# xmcd
#
# Track frame offsets:
#	150
#	11665
#	23375
#	34730
#	48115
#	62123
#	72980
#	86440
#	99553
#	114430
#	128480
#	143568
#	155403
#	168803
#	173673
#	188545
#	195028
#	207820
#	212108
#	224780
#	235313
#	248205
#	281210
#	292805
#	304373
#	311830
#	312978
#	318343
#
# Disc length: 4401 seconds
#
# Revision: 6
# Processed by: cddbd v1.5.2PL0 Copyright (c) Steve Scherf et al.
# Submitted via: EZCDAudioConverter 1.3.4.1
#
DISCID=82112f1c
DTITLE=Beach Boys - Pet Sounds Sessions 1/3
DYEAR=1966
DGENRE=
TTITLE0=Wouldn't It Be Nice
TTITLE1=You Still Believe In Me
TTITLE2=That's Not Me
TTITLE3=Don't Talk (Put Your Head On My Shoulder)
TTITLE4=I'm Waiting For The Day
TTITLE5=Let's Go Away For Awhile
TTITLE6=Sloop John B
TTITLE7=God Only Knows
TTITLE8=I Know There's An Answer
TTITLE9=Here Today
TTITLE10=I Just Wasn't Made For These Times
TTITLE11=Pet Sounds
TTITLE12=Caroline, No
TTITLE13=Sloop John B [Highlights From Tracking Date]
TTITLE14=Sloop John B [Stereo Backing Track]
TTITLE15=Trombone Dixie [Highlights From Tracking Date]
TTITLE16=Trombone Dixie [Stereo Backing Track]
TTITLE17=Pet Sounds [Highlights From Tracking Date]
TTITLE18=Pet Sounds [Stereo Track Without Guitar Overdub]
TTITLE19=Let's Go Away For Awhile [Highlights From Tracking Date]
TTITLE20=Let's Go Away For Awhile [Stereo Track Without String Overdub]
TTITLE21=Wouldn't It Be Nice [Highlights From Tracking Date]
TTITLE22=Wouldn't It Be Nice [Stereo Backing Track]
TTITLE23=Wouldn't It Be Nice [Stereo Track With Background Vocals]
TTITLE24=You Still Believe In Me [Intro-Session]
TTITLE25=You Still Believe In Me [Intro-Master Take]
TTITLE26=You Still Believe In Me [Highlights From Tracking Date]
TTITLE27=You Still Believe In Me [Stereo Backing Track]
EXTD=
EXTT0=
EXTT1=
EXTT2=
EXTT3=
EXTT4=
EXTT5=
EXTT6=
EXTT7=
EXTT8=
EXTT9=
EXTT10=
EXTT11=
EXTT12=
EXTT13=
EXTT14=
EXTT15=
EXTT16=
EXTT17=
EXTT18=
EXTT19=
EXTT20=
EXTT21=
EXTT22=
EXTT23=
EXTT24=
EXTT25=
EXTT26=
EXTT27=
PLAYORDER=
